:SAMPLES-PER-SECOND 30
:FULLY-SPECIFIED
:DEGREES
320
root  30.8286 33.4889 -67.1128 3.14418 1.93844 1.31068
RightUpLeg  -3.60201 -24.3925 -2.82331
RightLeg  12.0953 -13.2162 -1.9312
RightFoot  -0.189169 0.00490165 0.0236086
RightToes  -25.3791 -0.112407 -0.220007
Spine  3.86736 -0.199657 0.762749
Spine1  7.28599 -0.42098 1.22812
HEad  16.3983 52.5654 -3.17105
LeftShoulder1  0 -2.42657e-020 -4.95415e-022
LeftArm  -39.7286 12.257 -89.4326
LeftForeArm  59.1813 -15.5553 -2.76598
LeftHand  0.232748 -10.1741 -3.0344
RightShoulder  0 2.42657e-020 1.07489e-018
RightArm  -47.5213 -16.4793 79.1326
RightForeArm  49.0317 18.1479 3.28535
RightHand  -1.55146 21.6737 -7.72395
LeftUpLeg  -3.89059 -2.94358 -0.866315
LeftLeg  11.9428 -10.2323 -1.47877
LeftFoot  -1.03589 0.00525582 0.138274
LeftToes  -9.61852 8.72033e-007 1.17809e-007
321
root  30.8202 33.4856 -67.0886 3.14105 1.36433 1.25147
RightUpLeg  -3.6428 -23.9625 -2.73241
RightLeg  12.044 -13.076 -1.89926
RightFoot  -0.160351 0.00483064 0.015756
RightToes  -25.438 -0.112686 -0.220512
Spine  3.83049 -0.258363 0.806063
Spine1  7.20247 -0.54354 1.30778
HEad  16.6952 52.9582 -3.05275
LeftShoulder1  0 -2.42657e-020 -4.95415e-022
LeftArm  -38.9789 12.0233 -89.5928
LeftForeArm  58.9167 -15.6935 -2.79277
LeftHand  0.233494 -10.1683 -3.06236
RightShoulder  0 2.42657e-020 1.07489e-018
RightArm  -47.2591 -16.4499 79.072
RightForeArm  48.7859 18.4449 3.34386
RightHand  -1.53792 21.7154 -7.63778
LeftUpLeg  -3.74343 -2.76313 -0.833005
LeftLeg  11.8775 -9.79511 -1.40497
LeftFoot  -1.10169 0.00520795 0.141167
LeftToes  -9.872 8.72033e-007 1.17809e-007
322
root  30.8037 33.4817 -67.0511 3.09707 0.713406 1.19775
RightUpLeg  -3.65494 -23.4528 -2.65671
RightLeg  12.0445 -12.9632 -1.88329
RightFoot  -0.1563 0.00446496 0.0142116
RightToes  -25.5277 -0.112915 -0.220953
Spine  3.80275 -0.300339 0.841343
Spine1  7.13885 -0.629004 1.36741
HEad  16.8327 53.4324 -3.05836
LeftShoulder1  0 -2.42657e-020 -4.95415e-022
LeftArm  -38.7079 11.8171 -89.7642
LeftForeArm  58.9033 -15.7743 -2.80815
LeftHand  0.236848 -10.0699 -3.08777
RightShoulder  0 2.42657e-020 1.07489e-018
RightArm  -46.7522 -16.4007 79.0778
RightForeArm  48.2591 18.7231 3.39933
RightHand  -1.53915 21.7189 -7.64285
LeftUpLeg  -3.6357 -2.22751 -0.775771
LeftLeg  12.0372 -9.67172 -1.41487
LeftFoot  -1.33727 0.0028962 0.17863
LeftToes  -9.83391 8.72033e-007 1.17809e-007
323
root  30.782 33.4771 -67.0128 3.05033 0.0962147 1.12701
RightUpLeg  -3.6704 -23.0594 -2.56665
RightLeg  12.0841 -12.7379 -1.86011
RightFoot  -0.206183 0.00333419 0.0261529
RightToes  -25.4867 -0.113096 -0.221328
Spine  3.78479 -0.305233 0.899197
Spine1  7.0916 -0.649428 1.49426
HEad  16.7991 53.7992 -3.25371
LeftShoulder1  0 -2.42657e-020 -4.95415e-022
LeftArm  -38.3749 11.6115 -89.9752
LeftForeArm  58.7366 -15.8183 -2.81687
LeftHand  0.234044 -10.1524 -3.05508
RightShoulder  0 2.42657e-020 1.07489e-018
RightArm  -46.6758 -16.3777 79.1683
RightForeArm  48.0921 19.0266 3.45939
RightHand  -1.53216 21.7451 -7.59678
LeftUpLeg  -3.43865 -2.30008 -0.749689
LeftLeg  12.0226 -8.98367 -1.31287
LeftFoot  -1.4775 0.00240225 0.186293
LeftToes  -9.82526 8.72033e-007 1.17809e-007
324
root  30.751 33.4701 -66.9687 2.99941 -0.493819 1.01103
RightUpLeg  -3.65688 -22.5431 -2.41074
RightLeg  12.1234 -12.6683 -1.85893
RightFoot  -0.208198 0.00306052 0.0262677
RightToes  -25.5392 -0.113235 -0.221639
Spine  3.75666 -0.285801 0.945628
Spine1  7.0249 -0.620167 1.59775
HEad  16.8015 54.0899 -3.35801
LeftShoulder1  0 -2.42657e-020 -4.95415e-022
LeftArm  -38.0578 11.4372 -90.1399
LeftForeArm  58.6533 -15.8344 -2.82011
LeftHand  0.237869 -10.0834 -3.18408
RightShoulder  0 2.42657e-020 1.07489e-018
RightArm  -46.6195 -16.3913 79.367
RightForeArm  47.8854 19.2451 3.5029
RightHand  -1.50647 21.7176 -7.47371
LeftUpLeg  -3.28256 -2.15507 -0.646093
LeftLeg  12.1223 -8.51347 -1.25986
LeftFoot  -1.73809 0.000587514 0.213794
LeftToes  -9.76257 8.72033e-007 1.17809e-007
325
root  30.7256 33.4654 -66.9083 2.92746 -1.02158 0.975506
RightUpLeg  -3.53822 -22.4312 -2.41518
RightLeg  12.0441 -12.2897 -1.7871
RightFoot  -0.195473 0.00307208 0.0233087
RightToes  -25.8625 -0.113335 -0.221885
Spine  3.7242 -0.280661 0.950173
Spine1  6.95731 -0.617875 1.62323
HEad  16.8543 54.4084 -3.35203
LeftShoulder1  0 -2.42657e-020 -4.95415e-022
LeftArm  -37.8303 11.3573 -90.2289
LeftForeArm  58.644 -15.7994 -2.81346
LeftHand  0.234067 -10.1514 -3.07402
RightShoulder  0 2.42657e-020 1.07489e-018
RightArm  -46.8024 -16.4838 79.6946
RightForeArm  47.9837 19.436 3.54058
RightHand  -1.48057 21.7902 -7.31301
LeftUpLeg  -3.07003 -2.20744 -0.64945
LeftLeg  12.1801 -7.91915 -1.18076
LeftFoot  -1.93303 -0.000104723 0.224605
LeftToes  -9.71515 8.72033e-007 1.17809e-007
326
root  30.6961 33.4607 -66.8429 2.85394 -1.55383 0.946832
RightUpLeg  -3.43753 -22.0523 -2.38433
RightLeg  12.0435 -12.1703 -1.76989
RightFoot  -0.226471 0.0025158 0.0303954
RightToes  -25.988 -0.113401 -0.222068
Spine  3.69036 -0.305178 0.962208
Spine1  6.88762 -0.669128 1.64814
HEad  16.7283 54.8479 -3.50726
LeftShoulder1  0 -2.42657e-020 -4.95415e-022
LeftArm  -37.929 11.3981 -90.3505
LeftForeArm  58.7314 -15.7895 -2.81141
LeftHand  0.234549 -10.0968 -3.02662
RightShoulder  0 2.42657e-020 1.07489e-018
RightArm  -46.6011 -16.5198 79.9708
RightForeArm  48.0387 19.4746 3.54815
RightHand  -1.49606 21.8834 -7.35937
LeftUpLeg  -2.78524 -2.28654 -0.657161
LeftLeg  12.1201 -7.30195 -1.08158
LeftFoot  -2.06594 0.000105794 0.222079
LeftToes  -9.69973 8.72033e-007 1.17809e-007
327
root  30.6657 33.4565 -66.7851 2.80737 -1.95735 0.909595
RightUpLeg  -3.34713 -21.5404 -2.30585
RightLeg  12.0606 -12.2666 -1.78736
RightFoot  -0.327413 0.00103207 0.0529847
RightToes  -25.6605 -0.113435 -0.222186
Spine  3.67499 -0.330506 0.970468
Spine1  6.85481 -0.722119 1.66618
HEad  16.4864 55.1736 -3.74372
LeftShoulder1  0 -2.42657e-020 -4.95415e-022
LeftArm  -37.8721 11.3814 -90.4262
LeftForeArm  58.8034 -15.7384 -2.80154
LeftHand  0.232507 -10.1196 -3.02344
RightShoulder  0 2.42657e-020 1.07489e-018
RightArm  -46.6056 -16.5345 80.2765
RightForeArm  47.959 19.4899 3.5513
RightHand  -1.48281 21.972 -7.25954
LeftUpLeg  -2.53813 -1.98091 -0.590097
LeftLeg  12.0214 -7.21169 -1.05564
LeftFoot  -2.1676 -0.000440948 0.231952
LeftToes  -9.64656 8.72033e-007 1.17809e-007
328
root  30.6367 33.4518 -66.7243 2.75142 -2.23949 0.867938
RightUpLeg  -3.21758 -21.1806 -2.25147
RightLeg  12.0557 -12.3458 -1.79764
RightFoot  -0.342488 0.000831021 0.0566359
RightToes  -25.7788 -0.113443 -0.222241
Spine  3.65593 -0.356606 0.979394
Spine1  6.81496 -0.779582 1.69106
HEad  16.1171 55.3299 -4.08263
LeftShoulder1  0 -2.42657e-020 -4.95415e-022
LeftArm  -37.7081 11.4173 -90.4823
LeftForeArm  58.818 -15.6698 -2.7885
LeftHand  0.230342 -10.1399 -2.96784
RightShoulder  0 2.42657e-020 1.07489e-018
RightArm  -46.7046 -16.662 80.5961
RightForeArm  47.985 19.5342 3.56008
RightHand  -1.47102 21.964 -7.20185
LeftUpLeg  -2.34487 -1.72897 -0.507555
LeftLeg  12.0281 -7.1777 -1.05155
LeftFoot  -2.23602 -0.000794665 0.239394
LeftToes  -9.78772 8.72033e-007 1.17809e-007
329
root  30.6162 33.4457 -66.6754 2.73932 -2.36967 0.856008
RightUpLeg  -3.17327 -21.14 -2.23828
RightLeg  12.1168 -12.2854 -1.80227
RightFoot  -0.485281 -0.00108783 0.0878086
RightToes  -25.5437 -0.113427 -0.222232
Spine  3.62053 -0.421526 0.978258
Spine1  6.74442 -0.911955 1.68847
HEad  15.8112 55.4253 -4.33038
LeftShoulder1  0 -2.42657e-020 -4.95415e-022
LeftArm  -37.666 11.4917 -90.528
LeftForeArm  58.9712 -15.5761 -2.77039
LeftHand  0.232877 -10.143 -2.99559
RightShoulder  0 2.42657e-020 1.07489e-018
RightArm  -46.8167 -16.7798 80.8792
RightForeArm  47.9924 19.4715 3.5476
RightHand  -1.46085 22.0203 -7.13001
LeftUpLeg  -2.2495 -1.90114 -0.513476
LeftLeg  12.068 -6.84338 -1.00775
LeftFoot  -2.35126 -0.000711583 0.240554
LeftToes  -9.73193 8.72033e-007 1.17809e-007
